<svg xmlns="http://www.w3.org/2000/svg" width="180" version="1.1" height="95"><circle fill="#999" cy="30" cx="20" r="2"></circle><circle fill="#999" cy="10" cx="40" r="2"></circle><circle fill="#999" cy="60" cx="80" r="2"></circle><circle fill="#999" cy="35" cx="100" r="2"></circle><circle fill="#999" cy="85" cx="140" r="2"></circle><circle fill="#999" cy="60" cx="160" r="2"></circle><polyline stroke="#ccc" fill="none" points="20,30 40,10 80,60 100,35 140,85 160,60"></polyline><path fill="none" stroke="#f03" d="M20,30 C30,20 10,-5 40,10 C70,25 50,48 80,60 C110,73 70,22 100,35 C130,48 110,73 140,85 C170,98 150,73 160,60"></path></svg>